<?xml version="1.0" encoding="utf-8"?>
<!-- Generator: Adobe Illustrator 24.1.2, SVG Export Plug-In . SVG Version: 6.00 Build 0)  -->
<svg version="1.1" id="Слой_1" xmlns="http://www.w3.org/2000/svg" xmlns:xlink="http://www.w3.org/1999/xlink" x="0px" y="0px"
	 viewBox="0 0 445 639" style="enable-background:new 0 0 445 639;" xml:space="preserve">
<style type="text/css">
	.st0{fill:#44444F;}
	.st1{fill:#65E496;stroke:#000000;stroke-miterlimit:10;}
</style>
<path class="st0" d="M445,61.9c-1.1,292.3-1.5,501.6,0.4,526.1c0.4,4.5,2.4,22.4-8.4,35c-4,4.6-8.3,7-12,9c-15.1,8.1-30.7,8.2-41,7
	c-126.3,1.7-252.7,3.3-379,5c-2.8,0-5-2.3-5-5V5c0-2.8,2.2-5,5-5c106.8,0,213.1-11.8,357.1,0c9.6,0.8,33.1,2.5,53.9,19
	C432.8,32.3,440.9,49.9,445,61.9z"/>
<path class="st1" d="M445,319.5c-150,91.2-150,91.2-150,91.2L273,462.2l40.4,35.3l131.6-89V319.5z"/>
<path class="st1" d="M445,424c-109,67.4-109,67.4-109,67.4L320,529.5l29.4,26.1l95.6-65.8V424z"/>
</svg>
