<?xml version="1.0" encoding="utf-8"?>
<!-- Generator: Adobe Illustrator 24.1.2, SVG Export Plug-In . SVG Version: 6.00 Build 0)  -->
<svg version="1.1" id="Logo" xmlns="http://www.w3.org/2000/svg" xmlns:xlink="http://www.w3.org/1999/xlink" x="0px" y="0px"
	 viewBox="0 0 137 28" style="enable-background:new 0 0 137 28;" xml:space="preserve">
<style type="text/css">
	.st0{enable-background:new    ;}
	.st1{fill:#FEFEFE;}
	.st2{fill:#65E496;}
	.st3{fill-rule:evenodd;clip-rule:evenodd;fill:#65E496;}
	.st4{fill-rule:evenodd;clip-rule:evenodd;fill:#44444F;}
</style>
<g class="st0">
	<path class="st1" d="M39.9,23v-2.1l2.2-0.4V5.6l-2.2-0.4V3.1h2.2h6.6c2.2,0,4,0.5,5.2,1.4c1.3,0.9,1.9,2.3,1.9,4.1
		c0,0.9-0.3,1.7-0.8,2.4s-1.2,1.2-2.2,1.6c0.8,0.2,1.5,0.5,2,0.9s1,1,1.3,1.7s0.4,1.4,0.4,2.1c0,1.9-0.6,3.3-1.8,4.3
		c-1.2,1-2.9,1.5-5.1,1.5H39.9z M45.5,11.5H49c1,0,1.8-0.2,2.4-0.7c0.6-0.5,0.9-1.2,0.9-2.1c0-1-0.3-1.7-0.9-2.2
		c-0.6-0.5-1.5-0.7-2.7-0.7h-3.1V11.5z M45.5,20.3h4c1.1,0,2-0.3,2.6-0.8c0.6-0.5,0.9-1.3,0.9-2.3c0-0.7-0.1-1.3-0.3-1.8
		c-0.2-0.5-0.6-0.9-1-1.1S50.6,14,49.9,14h-4.4V20.3z"/>
	<path class="st1" d="M67.7,23.3c-1.5,0-2.8-0.3-4-0.8s-2-1.3-2.7-2.3s-1-2.3-1-3.7V5.6L58,5.2V3.1h7.8v2.1l-2.2,0.4v10.8
		c0,0.9,0.2,1.7,0.5,2.3c0.3,0.6,0.8,1.1,1.5,1.4s1.4,0.5,2.2,0.5c0.9,0,1.6-0.2,2.2-0.5c0.6-0.3,1.1-0.8,1.5-1.4
		c0.4-0.6,0.5-1.4,0.5-2.3V5.6l-2.2-0.4V3.1h7.8v2.1l-2.2,0.4v10.8c0,1.5-0.3,2.7-1,3.7s-1.5,1.8-2.7,2.3S69.3,23.3,67.7,23.3z"/>
	<path class="st1" d="M79.2,23v-2.1l2.2-0.4V5.6l-2.2-0.4V3.1h7.7v2.1l-2.1,0.4v14.9l2.1,0.4V23H79.2z M84.3,17.8l-1.8-2.1l9.6-10.2
		l0-0.1l-1.8-0.2V3.1h7.4v2.1l-1.9,0.4L84.3,17.8z M90.8,23v-2.1l1.8-0.2v0l-5.3-7.2l2.2-2.4l7.1,9.5l1.9,0.3V23H90.8z"/>
</g>
<g class="st0">
	<path class="st2" d="M100.6,23v-2.1l2.2-0.4V5.6l-2.2-0.4V3.1h15.2v5.1H113l-0.2-2.5h-6.6v5.6h7V14h-7v6.3h7l0.2-2.5h2.7V23H100.6z
		"/>
	<path class="st2" d="M118.4,23v-2.1l2.2-0.4V5.6l-2.2-0.4V3.1h15.2v5.1h-2.7l-0.2-2.5H124v5.6h7V14h-7v6.3h7l0.2-2.5h2.7V23H118.4z
		"/>
</g>
<g id="logo_icon">
	<path id="Rectangle_10_copy_3" class="st3" d="M28,28L0,0h28V28z"/>
	<path class="st4" d="M28,0L0,28V0H28z"/>
</g>
</svg>
