<svg width="248" height="211" viewBox="0 0 248 211" fill="none" xmlns="http://www.w3.org/2000/svg">
<path opacity="0.2" d="M68.359 120.571C81.0769 120.571 91.1453 124.802 98.5641 133.263C106.513 141.195 110.487 151.772 110.487 164.992C110.487 179.271 105.718 190.64 96.1795 199.102C87.171 207.034 74.718 211 58.8205 211C40.2735 211 25.7009 203.861 15.1026 189.583C5.03419 175.305 0 154.945 0 128.504C0 104.707 5.29915 82.7607 15.8974 62.6654C26.4957 42.0413 42.3932 21.4173 63.5897 0.793223C64.1197 0.264408 64.9145 0 65.9744 0C67.5641 0 68.8889 0.793223 69.9487 2.37967C71.0086 3.96615 71.0086 5.2882 69.9487 6.34583C43.9829 32.7869 31 63.9874 31 99.9474C31 114.754 33.6496 125.595 38.9487 132.47C43.718 124.538 53.5214 120.571 68.359 120.571ZM205.872 120.571C218.59 120.571 228.658 124.802 236.077 133.263C244.026 141.195 248 151.772 248 164.992C248 179.271 243.231 190.64 233.692 199.102C224.684 207.034 212.231 211 196.333 211C177.786 211 163.214 203.861 152.615 189.583C142.547 175.305 137.513 154.945 137.513 128.504C137.513 104.707 142.812 82.7607 153.41 62.6654C164.009 42.0413 179.906 21.4173 201.103 0.793223C201.632 0.264408 202.427 0 203.487 0C205.077 0 206.402 0.793223 207.462 2.37967C208.521 3.96615 208.521 5.2882 207.462 6.34583C181.496 32.7869 168.513 63.9874 168.513 99.9474C168.513 114.754 171.162 125.595 176.462 132.47C181.231 124.538 191.034 120.571 205.872 120.571Z" fill="#E9D6C7"/>
</svg>
