<?xml version="1.0" encoding="utf-8"?>
<!-- Generator: Adobe Illustrator 24.1.2, SVG Export Plug-In . SVG Version: 6.00 Build 0)  -->
<svg version="1.1" id="Слой_1" xmlns="http://www.w3.org/2000/svg" xmlns:xlink="http://www.w3.org/1999/xlink" x="0px" y="0px"
	 viewBox="0 0 228 73" style="enable-background:new 0 0 228 73;" xml:space="preserve">
<style type="text/css">
	.st0{enable-background:new    ;}
</style>
<g class="st0">
	<path d="M27.5,68.6c2.8,0.4,5.4,0.3,7.9-0.4c2.5-0.6,4.7-1.7,6.6-3.1c1.9-1.4,3.6-3.2,4.9-5.4c1.3-2.2,2.2-4.6,2.7-7.3
		c0.5-2.7,0.5-5.6,0-8.7c-0.5-3.1-1.5-6.4-3-9.8c-1.4-3-2.2-5.8-2.6-8.6c-0.3-2.8-0.2-5.4,0.5-7.9c-2.7-0.5-5.5-0.8-8.3-0.9
		c-2.8-0.1-5.5,0-8.2,0.4c-2.7,0.4-5.2,1.1-7.5,2.1c-2.4,1-4.5,2.4-6.3,4.1c-1.5,1.5-2.6,3.1-3.2,4.8c-0.6,1.7-0.8,3.4-0.7,5.1
		c0.1,1.6,0.6,3.1,1.4,4.4c0.8,1.3,1.7,2.3,2.9,3l-3.2,1.6c-1-0.1-2.1-0.5-3.2-1.2c-1.1-0.7-2.2-1.7-3.3-2.8c-1.1-1.2-2-2.5-2.8-4
		c-0.8-1.5-1.3-3.1-1.6-4.8c-0.3-1.7-0.3-3.4,0-5.1c0.3-1.7,1.1-3.5,2.3-5.1c1.5-2.1,3.4-3.7,5.6-4.7c2.2-1,4.6-1.7,7.2-2
		c2.6-0.3,5.3-0.4,8-0.3c2.8,0.2,5.5,0.4,8.2,0.8c2.7,0.3,5.2,0.7,7.6,1c2.4,0.3,4.5,0.4,6.3,0.3c1-2.2,2.3-4.1,3.9-5.9
		c1.6-1.8,3.6-3.3,5.7-4.6c2.2-1.3,4.5-2.2,7.2-2.9c2.6-0.7,5.4-1,8.3-1c3.2,0,5.8,0.6,7.9,1.8c2.1,1.2,3.7,2.7,4.7,4.5
		c1,1.8,1.5,3.8,1.5,6c0,2.2-0.6,4.2-1.7,6.2c-1.1,2-2.7,3.7-4.8,5.2c-2.1,1.5-4.7,2.5-7.9,2.9c-2.9,0.4-5.3,0.3-7.1-0.4
		c-1.8-0.7-3-1.7-3.8-3s-0.9-2.8-0.5-4.4c0.4-1.7,1.3-3.3,2.8-4.8c-0.6,0.2-1.3,0.4-2.1,0.6c-0.7,0.2-1.4,0.5-2.2,0.8
		c-0.8,0.3-1.7,0.5-2.6,0.8c-0.5,2.2-0.5,4.6-0.1,7.2c0.4,2.6,1.4,5.5,3,8.5c2,3.8,3.2,7.6,3.6,11.3c0.4,3.7,0.1,7.2-0.8,10.5
		s-2.4,6.2-4.5,8.9s-4.6,4.9-7.6,6.7c-3,1.8-6.3,3-10,3.7c-3.7,0.7-7.6,0.7-11.7,0c-4.3-0.7-7.6-2-10-4c-2.4-2-3.9-4.3-4.7-6.8
		c-0.8-2.6-0.8-5.2-0.2-8c0.6-2.8,1.8-5.4,3.5-7.7c1.7-2.3,3.8-4.3,6.5-5.8c2.6-1.5,5.5-2.3,8.6-2.3c1.4,0,2.5,0.3,3.3,1
		c0.7,0.6,1.2,1.5,1.3,2.5c0.1,1-0.1,2.1-0.5,3.2c-0.4,1.1-1.1,2.2-2,3.2c-0.9,1-1.9,1.8-3.2,2.5c-1.2,0.6-2.6,1-4.1,1
		c-1.4,0-2.4-0.5-2.9-1.4c-0.6-1-0.7-2.2-0.4-3.7c-1.6,0.9-2.8,2-3.8,3.3c-1,1.3-1.6,2.8-1.9,4.4c-0.3,1.6-0.4,3.2-0.1,4.8
		c0.3,1.6,0.9,3.1,1.8,4.5c0.9,1.4,2.2,2.6,3.8,3.6C23.2,67.6,25.2,68.3,27.5,68.6z M69.9,2.9c-1.3,0-2.6,0.2-3.9,0.6
		c-1.3,0.4-2.6,1-3.8,1.8S59.9,7,58.8,8.1c-1,1.1-1.9,2.4-2.5,3.8c2.1-0.6,4-1.3,5.7-2c1.8-0.7,3.3-1.3,4.5-1.9c1.5-0.7,2.8-1.3,4-2
		l1.2,3.2c-1.3,0.1-2.5,0.6-3.7,1.4c-1.2,0.8-2.2,1.7-3,2.8c-0.8,1.1-1.4,2.2-1.8,3.4S63,19,63.2,20c0.3,1,0.9,1.7,1.9,2.2
		c1,0.5,2.5,0.6,4.4,0.4c2.3-0.3,4.2-1,5.8-2.1c1.6-1.1,2.8-2.4,3.6-3.8c0.8-1.5,1.3-3,1.3-4.6c0.1-1.6-0.3-3.1-1-4.4
		c-0.7-1.4-1.9-2.5-3.5-3.4C74.3,3.3,72.3,2.9,69.9,2.9z"/>
	<path d="M77.7,50.8c0.3,0.6,1,0.9,2.1,0.9h0.7L79,54.8c-0.4,0.1-0.8,0.2-1.2,0.3c-0.7,0.1-1.6,0.2-2.7,0.2c-2.7,0-4.4-0.7-5.1-2.2
		c-0.7-1.5-0.4-3.8,0.9-7l9.9-24.5c0.4-1,0.5-1.7,0.2-2.3c-0.3-0.6-1-0.9-2.1-0.9h-0.7l1.5-3.1c0.4,0,0.8-0.1,1.2-0.2
		c0.4-0.1,0.8-0.2,1.2-0.2c0.4,0,0.9-0.1,1.4-0.1c2.7,0,4.4,0.7,5.1,2.2c0.7,1.5,0.4,3.8-1,7.1l-1.9,4.7c1-0.6,2-1.1,3-1.5
		c1.1-0.4,2.1-0.5,3.2-0.5c2.3,0,3.9,0.8,4.8,2.3c0.9,1.6,0.8,3.8-0.4,6.8l-4.7,11.3c-0.3,0.9-0.3,1.6,0.2,1.9
		c0.5,0.4,1.1,0.5,1.9,0.4c0.8-0.1,1.7-0.6,2.7-1.3c1-0.7,1.7-1.7,2.4-3l1.2,2c-0.5,1.1-1.1,2.2-2,3.2c-0.8,1-1.8,1.8-2.8,2.5
		c-1,0.7-2.1,1.3-3.3,1.7c-1.2,0.4-2.3,0.6-3.5,0.6c-1.1,0-2.1-0.2-3-0.6c-0.8-0.4-1.5-1-1.9-1.7c-0.4-0.8-0.6-1.7-0.5-2.9
		c0-1.1,0.4-2.5,1-3.9L88.9,35c0.3-0.7,0.3-1.3,0-1.7c-0.3-0.4-0.7-0.6-1.3-0.7c-0.6,0-1.2,0.1-2,0.4c-0.7,0.3-1.5,0.8-2.2,1.5
		l-5.7,14C77.4,49.4,77.4,50.2,77.7,50.8z"/>
	<path d="M117.4,26.8c1.7,0,3.2,0.4,4.3,1.1c1.2,0.7,2,1.8,2.5,3c0.5,1.3,0.7,2.8,0.6,4.5c-0.1,1.7-0.5,3.6-1.3,5.5
		c-0.9,2.2-1.9,4.2-3.2,6c-1.2,1.7-2.6,3.2-4.1,4.5c-1.5,1.2-3.1,2.2-4.8,2.8c-1.7,0.6-3.5,1-5.3,1c-1.8,0-3.2-0.4-4.4-1.1
		c-1.1-0.7-2-1.8-2.5-3c-0.5-1.3-0.7-2.8-0.6-4.6c0.1-1.7,0.6-3.6,1.3-5.6c1.8-4.5,4.2-8,7.2-10.5C110.3,28,113.7,26.8,117.4,26.8z
		 M115.6,41.1c0.6-1.5,1-2.9,1.4-4.2c0.4-1.3,0.6-2.5,0.7-3.5c0.1-1,0-1.8-0.1-2.5c-0.2-0.6-0.6-0.9-1.1-0.9s-1.2,0.3-1.9,0.9
		c-0.7,0.6-1.4,1.4-2.2,2.5c-0.7,1-1.5,2.2-2.2,3.5c-0.7,1.3-1.4,2.7-1.9,4.2c-0.6,1.4-1.1,2.8-1.4,4.1c-0.4,1.3-0.6,2.5-0.7,3.5
		c-0.1,1,0,1.8,0.3,2.4c0.2,0.6,0.6,0.9,1.2,0.9s1.2-0.3,1.9-0.9c0.7-0.6,1.4-1.4,2.1-2.4c0.7-1,1.4-2.2,2.2-3.5
		S115,42.5,115.6,41.1z"/>
	<path d="M134.6,55.3c-1.8,0-3.2-0.6-4.2-1.9l-2.9,7c-0.4,1-0.5,1.7-0.2,2.3c0.3,0.6,1,0.9,2,0.9h0.7l-1.5,3.1
		c-0.4,0.1-0.8,0.2-1.2,0.3c-0.4,0.1-0.8,0.2-1.3,0.2s-0.9,0.1-1.4,0.1c-2.7,0-4.4-0.8-5.1-2.3c-0.6-1.5-0.3-3.8,1-7
		c0.2-0.5,0.6-1.4,1.1-2.7c0.5-1.3,1.1-2.8,1.8-4.4c0.7-1.7,1.4-3.4,2.2-5.3c0.8-1.8,1.5-3.6,2.2-5.2c0.7-1.7,1.2-3.1,1.7-4.3
		c0.5-1.2,0.8-2,1-2.5c0.4-1,0.5-1.7,0.2-2.3c-0.3-0.6-1-0.9-2.1-0.9H128l1.4-3.1c0.4-0.1,0.8-0.2,1.2-0.3c0.4-0.1,0.8-0.2,1.3-0.2
		c0.5,0,0.9-0.1,1.4-0.1c3.3,0,5.2,1.1,5.5,3.4c1.3-1.1,2.7-1.9,4.1-2.5c1.4-0.6,2.7-0.9,3.9-0.9c1.6,0,3,0.4,4,1.1
		c1,0.7,1.8,1.8,2.2,3c0.5,1.3,0.6,2.8,0.4,4.5c-0.2,1.7-0.7,3.6-1.5,5.5c-2.1,4.9-4.7,8.5-7.7,10.8C141,54.1,137.9,55.3,134.6,55.3
		z M131.6,50.5c0.4,0.6,1.1,0.9,2,0.9c0.9,0,1.7-0.2,2.5-0.5c0.8-0.3,1.6-0.9,2.4-1.7c0.8-0.8,1.6-1.8,2.4-3.1
		c0.8-1.3,1.7-2.8,2.7-4.7c0.7-1.4,1.2-2.7,1.6-3.9c0.4-1.2,0.6-2.3,0.7-3.2c0-0.9-0.1-1.6-0.5-2.2c-0.4-0.5-0.9-0.8-1.8-0.8
		c-0.8,0-1.7,0.2-2.6,0.7c-0.9,0.5-1.8,1.1-2.8,1.9c-0.1,0.4-0.2,0.7-0.3,1.1c-0.1,0.3-0.3,0.7-0.4,1.1L131.6,50.5z"/>
	<path d="M160.2,50.8c0.3,0.6,1,0.9,2.1,0.9h0.7l-1.5,3.1c-0.4,0.1-0.8,0.2-1.2,0.3c-0.7,0.1-1.6,0.2-2.7,0.2
		c-2.7,0-4.4-0.7-5.1-2.2c-0.7-1.5-0.4-3.8,0.9-7l9.9-24.5c0.4-1,0.5-1.7,0.2-2.3c-0.3-0.6-1-0.9-2.1-0.9h-0.7l1.5-3.1
		c0.4,0,0.8-0.1,1.2-0.2c0.4-0.1,0.8-0.2,1.2-0.2c0.4,0,0.9-0.1,1.4-0.1c2.7,0,4.4,0.7,5.1,2.2c0.7,1.5,0.4,3.8-1,7.1l-1.9,4.7
		c1-0.6,2-1.1,3-1.5c1.1-0.4,2.1-0.5,3.2-0.5c2.3,0,3.9,0.8,4.8,2.3c0.9,1.6,0.8,3.8-0.4,6.8l-4.7,11.3c-0.3,0.9-0.3,1.6,0.2,1.9
		c0.5,0.4,1.1,0.5,1.9,0.4c0.8-0.1,1.7-0.6,2.7-1.3c1-0.7,1.7-1.7,2.4-3l1.2,2c-0.5,1.1-1.1,2.2-2,3.2c-0.8,1-1.8,1.8-2.8,2.5
		c-1,0.7-2.1,1.3-3.3,1.7c-1.2,0.4-2.3,0.6-3.5,0.6c-1.1,0-2.1-0.2-3-0.6c-0.8-0.4-1.5-1-1.9-1.7c-0.4-0.8-0.6-1.7-0.5-2.9
		c0-1.1,0.4-2.5,1-3.9l4.7-11.2c0.3-0.7,0.3-1.3,0-1.7c-0.3-0.4-0.7-0.6-1.3-0.7c-0.6,0-1.2,0.1-2,0.4c-0.7,0.3-1.5,0.8-2.2,1.5
		l-5.7,14C160,49.4,159.9,50.2,160.2,50.8z"/>
	<path d="M197,47.2c-0.5,1.1-1.1,2.2-2,3.2c-0.8,1-1.8,1.8-2.8,2.5c-1,0.7-2.1,1.3-3.3,1.7s-2.3,0.6-3.5,0.6c-2.3,0-4-0.8-4.9-2.3
		c-0.9-1.5-0.7-3.8,0.5-6.8c0.2-0.6,0.6-1.4,1.1-2.6c0.5-1.2,1-2.4,1.5-3.7c0.5-1.3,1-2.5,1.5-3.7c0.5-1.1,0.8-2,1-2.5
		c0.4-1,0.4-1.7,0.1-2.3c-0.3-0.6-1-0.9-2.1-0.9h-0.7l1.5-3.1c0.4-0.1,0.8-0.2,1.2-0.3c0.4-0.1,0.8-0.2,1.3-0.2
		c0.5,0,0.9-0.1,1.4-0.1c2.7,0,4.4,0.8,5.1,2.3c0.7,1.5,0.4,3.8-0.9,7c-0.3,0.7-0.7,1.7-1.2,2.9c-0.5,1.2-1,2.5-1.5,3.7
		c-0.6,1.4-1.2,2.9-1.8,4.4c-0.4,1-0.3,1.6,0.1,2c0.5,0.4,1.1,0.5,2,0.3c0.8-0.2,1.7-0.6,2.7-1.3c1-0.7,1.7-1.7,2.4-3L197,47.2z
		 M200,19.8c0,1.2-0.4,2.2-1.3,3.1c-0.9,0.9-1.9,1.3-3.1,1.3c-1.2,0-2.3-0.4-3.2-1.3c-0.9-0.9-1.3-1.9-1.3-3.1
		c0-1.2,0.4-2.2,1.3-3.1s1.9-1.3,3.2-1.3c1.2,0,2.2,0.4,3.1,1.3C199.5,17.6,200,18.6,200,19.8z"/>
	<path d="M214.2,26.8c1.9,0,3.3,0.7,4.2,2c0.1-0.3,0.3-0.6,0.3-0.9c0.1-0.3,0.2-0.4,0.3-0.5h7.9c-0.1,0.4-0.4,1.2-0.9,2.2
		c-0.4,1.1-0.9,2.3-1.5,3.6c-0.6,1.4-1.2,2.8-1.8,4.3c-0.6,1.5-1.2,2.9-1.8,4.3c-0.6,1.3-1,2.5-1.4,3.5c-0.4,1-0.7,1.6-0.8,1.9
		c-0.4,0.9-0.3,1.6,0.1,1.9c0.5,0.4,1.1,0.5,1.9,0.4c0.8-0.1,1.7-0.6,2.7-1.3c1-0.7,1.8-1.7,2.4-3l1.2,2c-0.5,1.1-1.1,2.2-2,3.2
		c-0.8,1-1.8,1.8-2.8,2.5c-1,0.7-2.1,1.3-3.3,1.7c-1.2,0.4-2.3,0.6-3.5,0.6c-1.5,0-2.7-0.3-3.6-0.9c-0.9-0.6-1.5-1.6-1.8-2.8
		c-1.4,1.1-2.8,2.1-4.2,2.7c-1.4,0.7-2.8,1-4.1,1c-1.6,0-3-0.4-4-1.1c-1-0.7-1.8-1.8-2.2-3s-0.6-2.8-0.4-4.6
		c0.2-1.7,0.7-3.6,1.5-5.6c2.1-4.9,4.6-8.5,7.7-10.8C207.8,27.9,210.9,26.8,214.2,26.8z M217.3,31.6c-0.4-0.7-1.1-1-2.1-1
		c-0.9,0-1.8,0.2-2.5,0.5s-1.6,0.9-2.4,1.7c-0.8,0.8-1.6,1.8-2.4,3.1c-0.8,1.3-1.7,2.9-2.6,4.7c-0.7,1.4-1.3,2.7-1.7,3.9
		c-0.4,1.2-0.6,2.3-0.7,3.2c0,0.9,0.1,1.6,0.5,2.2c0.4,0.5,0.9,0.8,1.8,0.8c0.8,0,1.7-0.2,2.7-0.7c1-0.5,1.9-1.1,2.9-2
		c0.1-0.6,0.4-1.2,0.6-1.9L217.3,31.6z"/>
</g>
</svg>
