<svg xmlns="http://www.w3.org/2000/svg" width="18" height="18" viewBox="0 0 18 18">
  <defs>
    <style>
      .cls-1 {
        fill: #e67624;
        fill-rule: evenodd;
      }
    </style>
  </defs>
  <path id="Shape_15_copy_2" data-name="Shape 15 copy 2" class="cls-1" d="M647,1831a9,9,0,1,0,9,9A9,9,0,0,0,647,1831Zm4.66,8.32-4.08,4.08c-0.784.78-1.855,0.98-2.394,0.44a0.036,0.036,0,0,1-.018-0.02,1.258,1.258,0,0,1-.346-0.23l-2.468-2.47a1.215,1.215,0,0,1,1.717-1.72l1.8,1.81,3.838-3.84A1.478,1.478,0,1,1,651.66,1839.32Z" transform="translate(-638 -1831)"/>
</svg>
