<svg width="267" height="67" viewBox="0 0 267 67" fill="none" xmlns="http://www.w3.org/2000/svg">
<path d="M35.603 28.51C35.603 28.55 35.543 28.58 35.423 28.6C35.323 28.62 35.263 28.6 35.243 28.54C34.923 27.38 34.383 26.52 33.623 25.96C32.863 25.4 31.863 25.12 30.623 25.12H29.723C29.123 25.12 28.683 25.25 28.403 25.51C28.123 25.77 27.983 26.17 27.983 26.71V33.19H30.143C31.303 33.19 32.183 32.99 32.783 32.59C33.403 32.17 33.713 31.6 33.713 30.88C33.713 30.84 33.773 30.82 33.893 30.82C34.013 30.82 34.073 30.84 34.073 30.88L34.043 33.61C34.043 34.25 34.053 34.73 34.073 35.05L34.103 36.64C34.103 36.7 34.043 36.73 33.923 36.73C33.803 36.73 33.743 36.7 33.743 36.64C33.743 35.84 33.423 35.21 32.783 34.75C32.163 34.27 31.273 34.03 30.113 34.03H27.983V40.45C27.983 41.07 28.063 41.53 28.223 41.83C28.383 42.13 28.683 42.34 29.123 42.46C29.563 42.58 30.253 42.64 31.193 42.64C31.233 42.64 31.253 42.7 31.253 42.82C31.253 42.94 31.233 43 31.193 43C30.373 43 29.733 42.99 29.273 42.97L26.213 42.94L23.963 42.97C23.563 42.99 23.013 43 22.313 43C22.253 43 22.223 42.94 22.223 42.82C22.223 42.7 22.253 42.64 22.313 42.64C23.013 42.64 23.523 42.59 23.843 42.49C24.163 42.39 24.373 42.2 24.473 41.92C24.593 41.62 24.653 41.17 24.653 40.57V26.68C24.653 26.08 24.603 25.64 24.503 25.36C24.403 25.08 24.203 24.89 23.903 24.79C23.603 24.67 23.143 24.61 22.523 24.61C22.463 24.61 22.433 24.55 22.433 24.43C22.433 24.31 22.463 24.25 22.523 24.25H35.243C35.443 24.25 35.543 24.34 35.543 24.52L35.603 28.51ZM60.7737 42.64C60.8737 42.64 60.9237 42.7 60.9237 42.82C60.9237 42.94 60.8737 43 60.7737 43C60.3737 43 59.7537 42.98 58.9137 42.94C58.0337 42.9 57.4037 42.88 57.0237 42.88C56.5237 42.88 55.9137 42.9 55.1937 42.94C54.5137 42.98 53.9737 43 53.5737 43C53.4937 43 53.4537 42.94 53.4537 42.82C53.4537 42.7 53.4937 42.64 53.5737 42.64C54.0937 42.64 54.4637 42.59 54.6837 42.49C54.9237 42.37 55.0437 42.17 55.0437 41.89C55.0437 41.55 54.8437 40.98 54.4437 40.18L51.3237 34.03H45.9837L43.8537 38.74C43.5937 39.32 43.4637 39.86 43.4637 40.36C43.4637 41.08 43.7137 41.64 44.2137 42.04C44.7337 42.44 45.4237 42.64 46.2837 42.64C46.3837 42.64 46.4337 42.7 46.4337 42.82C46.4337 42.94 46.3837 43 46.2837 43C45.9237 43 45.4037 42.98 44.7237 42.94C43.9637 42.9 43.3037 42.88 42.7437 42.88C42.2037 42.88 41.5537 42.9 40.7937 42.94C40.1137 42.98 39.5637 43 39.1437 43C39.0637 43 39.0237 42.94 39.0237 42.82C39.0237 42.7 39.0637 42.64 39.1437 42.64C39.7037 42.64 40.1737 42.53 40.5537 42.31C40.9337 42.07 41.3137 41.66 41.6937 41.08C42.0737 40.48 42.5237 39.6 43.0437 38.44L49.5537 24.13C49.5937 24.07 49.6837 24.04 49.8237 24.04C49.9837 24.04 50.0737 24.07 50.0937 24.13L57.5937 38.89C58.2937 40.31 58.8737 41.29 59.3337 41.83C59.7937 42.37 60.2737 42.64 60.7737 42.64ZM46.3737 33.19H50.9037L48.5037 28.45L46.3737 33.19ZM68.9583 27.28C68.9583 28 69.1383 28.64 69.4983 29.2C69.8783 29.76 70.3383 30.25 70.8783 30.67C71.4183 31.09 72.1483 31.6 73.0683 32.2C74.0683 32.84 74.8683 33.4 75.4683 33.88C76.0683 34.36 76.5783 34.95 76.9983 35.65C77.4183 36.33 77.6283 37.12 77.6283 38.02C77.6283 39.06 77.3483 39.99 76.7883 40.81C76.2283 41.61 75.4483 42.24 74.4483 42.7C73.4683 43.14 72.3683 43.36 71.1483 43.36C70.2483 43.36 69.3083 43.24 68.3283 43C67.3483 42.74 66.6883 42.46 66.3483 42.16C66.2483 42.08 66.1683 42.01 66.1083 41.95C66.0683 41.87 66.0483 41.75 66.0483 41.59L65.9583 36.82V36.79C65.9583 36.71 66.0083 36.67 66.1083 36.67C66.2083 36.65 66.2683 36.68 66.2883 36.76C66.8883 37.98 67.4083 38.97 67.8483 39.73C68.3083 40.49 68.8783 41.16 69.5583 41.74C70.2583 42.32 71.0483 42.61 71.9283 42.61C72.7283 42.61 73.3883 42.4 73.9083 41.98C74.4283 41.54 74.6883 40.8 74.6883 39.76C74.6883 38.88 74.4883 38.11 74.0883 37.45C73.7083 36.79 73.2383 36.23 72.6783 35.77C72.1183 35.31 71.3483 34.76 70.3683 34.12C69.4083 33.5 68.6583 32.97 68.1183 32.53C67.5983 32.09 67.1483 31.56 66.7683 30.94C66.3883 30.32 66.1983 29.59 66.1983 28.75C66.1983 27.69 66.4983 26.8 67.0983 26.08C67.7183 25.34 68.5083 24.8 69.4683 24.46C70.4283 24.1 71.4383 23.92 72.4983 23.92C73.1983 23.92 73.9083 23.99 74.6283 24.13C75.3483 24.25 75.9283 24.4 76.3683 24.58C76.5483 24.66 76.6683 24.75 76.7283 24.85C76.7883 24.93 76.8183 25.04 76.8183 25.18V29.59C76.8183 29.65 76.7683 29.7 76.6683 29.74C76.5683 29.76 76.5083 29.74 76.4883 29.68L76.2483 29.11C75.7483 27.85 75.1583 26.78 74.4783 25.9C73.8183 25.02 72.8883 24.58 71.6883 24.58C70.8883 24.58 70.2283 24.81 69.7083 25.27C69.2083 25.73 68.9583 26.4 68.9583 27.28ZM104.138 42.64C104.198 42.64 104.228 42.7 104.228 42.82C104.228 42.94 104.198 43 104.138 43C103.438 43 102.878 42.99 102.458 42.97L100.148 42.94L97.4477 42.97C97.0877 42.99 96.5977 43 95.9777 43C95.9177 43 95.8877 42.94 95.8877 42.82C95.8877 42.7 95.9177 42.64 95.9777 42.64C96.7177 42.64 97.2577 42.59 97.5977 42.49C97.9377 42.39 98.1677 42.2 98.2877 41.92C98.4077 41.64 98.4677 41.19 98.4677 40.57V33.67H88.7777V40.57C88.7777 41.17 88.8377 41.62 88.9577 41.92C89.0777 42.2 89.3077 42.39 89.6477 42.49C89.9877 42.59 90.5277 42.64 91.2677 42.64C91.3077 42.64 91.3277 42.7 91.3277 42.82C91.3277 42.94 91.3077 43 91.2677 43C90.5677 43 90.0077 42.99 89.5877 42.97L86.9777 42.94L84.7277 42.97C84.3277 42.99 83.7777 43 83.0777 43C83.0377 43 83.0177 42.94 83.0177 42.82C83.0177 42.7 83.0377 42.64 83.0777 42.64C83.7777 42.64 84.2877 42.59 84.6077 42.49C84.9277 42.39 85.1477 42.2 85.2677 41.92C85.3877 41.62 85.4477 41.17 85.4477 40.57V26.68C85.4477 26.08 85.3877 25.64 85.2677 25.36C85.1477 25.08 84.9277 24.89 84.6077 24.79C84.3077 24.67 83.8177 24.61 83.1377 24.61C83.0777 24.61 83.0477 24.55 83.0477 24.43C83.0477 24.31 83.0777 24.25 83.1377 24.25L84.7577 24.28C85.6777 24.32 86.4177 24.34 86.9777 24.34C87.7377 24.34 88.6177 24.32 89.6177 24.28L91.2677 24.25C91.3077 24.25 91.3277 24.31 91.3277 24.43C91.3277 24.55 91.3077 24.61 91.2677 24.61C90.5477 24.61 90.0177 24.67 89.6777 24.79C89.3377 24.91 89.0977 25.12 88.9577 25.42C88.8377 25.7 88.7777 26.14 88.7777 26.74V32.83H98.4677V26.74C98.4677 26.14 98.4077 25.7 98.2877 25.42C98.1677 25.12 97.9377 24.91 97.5977 24.79C97.2577 24.67 96.7177 24.61 95.9777 24.61C95.9177 24.61 95.8877 24.55 95.8877 24.43C95.8877 24.31 95.9177 24.25 95.9777 24.25L97.4477 24.28C98.4477 24.32 99.3477 24.34 100.148 24.34C100.688 24.34 101.458 24.32 102.458 24.28L104.138 24.25C104.198 24.25 104.228 24.31 104.228 24.43C104.228 24.55 104.198 24.61 104.138 24.61C103.458 24.61 102.948 24.67 102.608 24.79C102.288 24.89 102.068 25.08 101.948 25.36C101.848 25.64 101.798 26.08 101.798 26.68V40.57C101.798 41.17 101.848 41.62 101.948 41.92C102.068 42.2 102.288 42.39 102.608 42.49C102.928 42.59 103.438 42.64 104.138 42.64ZM114.898 40.57C114.898 41.19 114.948 41.64 115.048 41.92C115.148 42.2 115.338 42.39 115.618 42.49C115.918 42.59 116.388 42.64 117.028 42.64C117.088 42.64 117.118 42.7 117.118 42.82C117.118 42.94 117.088 43 117.028 43C116.368 43 115.848 42.99 115.468 42.97L113.188 42.94L110.968 42.97C110.568 42.99 110.028 43 109.348 43C109.308 43 109.288 42.94 109.288 42.82C109.288 42.7 109.308 42.64 109.348 42.64C109.988 42.64 110.458 42.59 110.758 42.49C111.058 42.39 111.258 42.2 111.358 41.92C111.478 41.62 111.538 41.17 111.538 40.57V26.68C111.538 26.08 111.478 25.64 111.358 25.36C111.258 25.08 111.058 24.89 110.758 24.79C110.458 24.67 109.988 24.61 109.348 24.61C109.308 24.61 109.288 24.55 109.288 24.43C109.288 24.31 109.308 24.25 109.348 24.25L110.968 24.28C111.888 24.32 112.628 24.34 113.188 24.34C113.808 24.34 114.578 24.32 115.498 24.28L117.028 24.25C117.088 24.25 117.118 24.31 117.118 24.43C117.118 24.55 117.088 24.61 117.028 24.61C116.408 24.61 115.948 24.67 115.648 24.79C115.348 24.91 115.148 25.12 115.048 25.42C114.948 25.7 114.898 26.14 114.898 26.74V40.57ZM132.322 43.36C130.462 43.36 128.802 42.93 127.342 42.07C125.902 41.19 124.782 40.01 123.982 38.53C123.202 37.03 122.812 35.4 122.812 33.64C122.812 31.58 123.332 29.82 124.372 28.36C125.412 26.88 126.742 25.77 128.362 25.03C130.002 24.29 131.672 23.92 133.372 23.92C135.272 23.92 136.942 24.37 138.382 25.27C139.822 26.15 140.922 27.32 141.682 28.78C142.462 30.24 142.852 31.79 142.852 33.43C142.852 35.25 142.372 36.92 141.412 38.44C140.452 39.96 139.162 41.16 137.542 42.04C135.942 42.92 134.202 43.36 132.322 43.36ZM133.312 42.61C134.432 42.61 135.432 42.29 136.312 41.65C137.212 40.99 137.912 40.04 138.412 38.8C138.912 37.54 139.162 36.04 139.162 34.3C139.162 32.46 138.882 30.82 138.322 29.38C137.762 27.92 136.952 26.78 135.892 25.96C134.832 25.14 133.592 24.73 132.172 24.73C130.352 24.73 128.952 25.42 127.972 26.8C126.992 28.16 126.502 30.07 126.502 32.53C126.502 34.47 126.792 36.21 127.372 37.75C127.972 39.27 128.782 40.46 129.802 41.32C130.842 42.18 132.012 42.61 133.312 42.61ZM169.001 24.25C169.041 24.25 169.061 24.31 169.061 24.43C169.061 24.55 169.041 24.61 169.001 24.61C168.201 24.61 167.571 24.93 167.111 25.57C166.651 26.19 166.421 27.03 166.421 28.09V43.45C166.421 43.51 166.371 43.55 166.271 43.57C166.191 43.59 166.131 43.58 166.091 43.54L152.021 27.52V39.19C152.021 40.25 152.241 41.09 152.681 41.71C153.121 42.33 153.731 42.64 154.511 42.64C154.551 42.64 154.571 42.7 154.571 42.82C154.571 42.94 154.551 43 154.511 43C153.951 43 153.521 42.99 153.221 42.97L151.601 42.94L149.741 42.97C149.401 42.99 148.911 43 148.271 43C148.211 43 148.181 42.94 148.181 42.82C148.181 42.7 148.211 42.64 148.271 42.64C149.151 42.64 149.841 42.33 150.341 41.71C150.861 41.09 151.121 40.25 151.121 39.19V26.5C150.461 25.78 149.891 25.29 149.411 25.03C148.951 24.75 148.471 24.61 147.971 24.61C147.931 24.61 147.911 24.55 147.911 24.43C147.911 24.31 147.931 24.25 147.971 24.25L149.231 24.28C149.491 24.3 149.871 24.31 150.371 24.31L152.651 24.28C152.931 24.26 153.271 24.25 153.671 24.25C153.831 24.25 153.951 24.29 154.031 24.37C154.111 24.45 154.251 24.62 154.451 24.88C154.791 25.34 155.031 25.65 155.171 25.81L165.551 37.78V28.09C165.551 27.01 165.331 26.16 164.891 25.54C164.451 24.92 163.841 24.61 163.061 24.61C163.021 24.61 163.001 24.55 163.001 24.43C163.001 24.31 163.021 24.25 163.061 24.25L164.351 24.28C164.991 24.32 165.531 24.34 165.971 24.34C166.371 24.34 166.931 24.32 167.651 24.28L169.001 24.25ZM179.181 40.57C179.181 41.19 179.231 41.64 179.331 41.92C179.431 42.2 179.621 42.39 179.901 42.49C180.201 42.59 180.671 42.64 181.311 42.64C181.371 42.64 181.401 42.7 181.401 42.82C181.401 42.94 181.371 43 181.311 43C180.651 43 180.131 42.99 179.751 42.97L177.471 42.94L175.251 42.97C174.851 42.99 174.311 43 173.631 43C173.591 43 173.571 42.94 173.571 42.82C173.571 42.7 173.591 42.64 173.631 42.64C174.271 42.64 174.741 42.59 175.041 42.49C175.341 42.39 175.541 42.2 175.641 41.92C175.761 41.62 175.821 41.17 175.821 40.57V26.68C175.821 26.08 175.761 25.64 175.641 25.36C175.541 25.08 175.341 24.89 175.041 24.79C174.741 24.67 174.271 24.61 173.631 24.61C173.591 24.61 173.571 24.55 173.571 24.43C173.571 24.31 173.591 24.25 173.631 24.25L175.251 24.28C176.171 24.32 176.911 24.34 177.471 24.34C178.091 24.34 178.861 24.32 179.781 24.28L181.311 24.25C181.371 24.25 181.401 24.31 181.401 24.43C181.401 24.55 181.371 24.61 181.311 24.61C180.691 24.61 180.231 24.67 179.931 24.79C179.631 24.91 179.431 25.12 179.331 25.42C179.231 25.7 179.181 26.14 179.181 26.74V40.57ZM190.845 27.28C190.845 28 191.025 28.64 191.385 29.2C191.765 29.76 192.225 30.25 192.765 30.67C193.305 31.09 194.035 31.6 194.955 32.2C195.955 32.84 196.755 33.4 197.355 33.88C197.955 34.36 198.465 34.95 198.885 35.65C199.305 36.33 199.515 37.12 199.515 38.02C199.515 39.06 199.235 39.99 198.675 40.81C198.115 41.61 197.335 42.24 196.335 42.7C195.355 43.14 194.255 43.36 193.035 43.36C192.135 43.36 191.195 43.24 190.215 43C189.235 42.74 188.575 42.46 188.235 42.16C188.135 42.08 188.055 42.01 187.995 41.95C187.955 41.87 187.935 41.75 187.935 41.59L187.845 36.82V36.79C187.845 36.71 187.895 36.67 187.995 36.67C188.095 36.65 188.155 36.68 188.175 36.76C188.775 37.98 189.295 38.97 189.735 39.73C190.195 40.49 190.765 41.16 191.445 41.74C192.145 42.32 192.935 42.61 193.815 42.61C194.615 42.61 195.275 42.4 195.795 41.98C196.315 41.54 196.575 40.8 196.575 39.76C196.575 38.88 196.375 38.11 195.975 37.45C195.595 36.79 195.125 36.23 194.565 35.77C194.005 35.31 193.235 34.76 192.255 34.12C191.295 33.5 190.545 32.97 190.005 32.53C189.485 32.09 189.035 31.56 188.655 30.94C188.275 30.32 188.085 29.59 188.085 28.75C188.085 27.69 188.385 26.8 188.985 26.08C189.605 25.34 190.395 24.8 191.355 24.46C192.315 24.1 193.325 23.92 194.385 23.92C195.085 23.92 195.795 23.99 196.515 24.13C197.235 24.25 197.815 24.4 198.255 24.58C198.435 24.66 198.555 24.75 198.615 24.85C198.675 24.93 198.705 25.04 198.705 25.18V29.59C198.705 29.65 198.655 29.7 198.555 29.74C198.455 29.76 198.395 29.74 198.375 29.68L198.135 29.11C197.635 27.85 197.045 26.78 196.365 25.9C195.705 25.02 194.775 24.58 193.575 24.58C192.775 24.58 192.115 24.81 191.595 25.27C191.095 25.73 190.845 26.4 190.845 27.28ZM210.724 24.94C208.344 24.94 206.634 26.49 205.594 29.59C205.574 29.65 205.514 29.68 205.414 29.68C205.314 29.66 205.264 29.62 205.264 29.56C205.344 28.76 205.434 27.73 205.534 26.47C205.634 25.19 205.684 24.23 205.684 23.59C205.684 23.49 205.734 23.44 205.834 23.44C205.954 23.44 206.014 23.49 206.014 23.59C206.014 24.03 206.584 24.25 207.724 24.25C209.444 24.31 211.454 24.34 213.754 24.34C214.934 24.34 216.184 24.32 217.504 24.28L219.544 24.25C220.304 24.25 220.854 24.2 221.194 24.1C221.554 24 221.784 23.8 221.884 23.5C221.904 23.42 221.964 23.38 222.064 23.38C222.184 23.38 222.244 23.42 222.244 23.5C222.184 24.1 222.114 25.06 222.034 26.38C221.974 27.7 221.944 28.76 221.944 29.56C221.944 29.62 221.894 29.65 221.794 29.65C221.694 29.65 221.634 29.62 221.614 29.56C221.314 28.02 220.754 26.87 219.934 26.11C219.114 25.33 218.104 24.94 216.904 24.94C216.324 24.94 215.934 25.07 215.734 25.33C215.554 25.57 215.464 26.04 215.464 26.74V40.57C215.464 41.19 215.524 41.64 215.644 41.92C215.764 42.2 215.994 42.39 216.334 42.49C216.674 42.59 217.214 42.64 217.954 42.64C218.014 42.64 218.044 42.7 218.044 42.82C218.044 42.94 218.014 43 217.954 43C217.234 43 216.664 42.99 216.244 42.97L213.754 42.94L211.324 42.97C210.904 42.99 210.324 43 209.584 43C209.524 43 209.494 42.94 209.494 42.82C209.494 42.7 209.524 42.64 209.584 42.64C210.304 42.64 210.834 42.59 211.174 42.49C211.534 42.39 211.774 42.2 211.894 41.92C212.034 41.62 212.104 41.17 212.104 40.57V26.68C212.104 26 212.014 25.54 211.834 25.3C211.654 25.06 211.284 24.94 210.724 24.94ZM245.742 42.64C245.842 42.64 245.892 42.7 245.892 42.82C245.892 42.94 245.842 43 245.742 43C245.342 43 244.722 42.98 243.882 42.94C243.002 42.9 242.372 42.88 241.992 42.88C241.492 42.88 240.882 42.9 240.162 42.94C239.482 42.98 238.942 43 238.542 43C238.462 43 238.422 42.94 238.422 42.82C238.422 42.7 238.462 42.64 238.542 42.64C239.062 42.64 239.432 42.59 239.652 42.49C239.892 42.37 240.012 42.17 240.012 41.89C240.012 41.55 239.812 40.98 239.412 40.18L236.292 34.03H230.952L228.822 38.74C228.562 39.32 228.432 39.86 228.432 40.36C228.432 41.08 228.682 41.64 229.182 42.04C229.702 42.44 230.392 42.64 231.252 42.64C231.352 42.64 231.402 42.7 231.402 42.82C231.402 42.94 231.352 43 231.252 43C230.892 43 230.372 42.98 229.692 42.94C228.932 42.9 228.272 42.88 227.712 42.88C227.172 42.88 226.522 42.9 225.762 42.94C225.082 42.98 224.532 43 224.112 43C224.032 43 223.992 42.94 223.992 42.82C223.992 42.7 224.032 42.64 224.112 42.64C224.672 42.64 225.142 42.53 225.522 42.31C225.902 42.07 226.282 41.66 226.662 41.08C227.042 40.48 227.492 39.6 228.012 38.44L234.522 24.13C234.562 24.07 234.652 24.04 234.792 24.04C234.952 24.04 235.042 24.07 235.062 24.13L242.562 38.89C243.262 40.31 243.842 41.29 244.302 41.83C244.762 42.37 245.242 42.64 245.742 42.64ZM231.342 33.19H235.872L233.472 28.45L231.342 33.19Z" fill="#22100B"/>
<path d="M250.5 66H1V8" stroke="#D9D7DD"/>
<path d="M17 1L266.5 1V59" stroke="#D9D7DD"/>
</svg>
